<?xml version="1.0" encoding="UTF-8"?>
<svg width="700pt" height="700pt" version="1.1" viewBox="0 0 700 700">
 <g>
  <path d="m536.03 542.5c8.6758-0.011719 16.992-3.4609 23.129-9.5938 6.1328-6.1367 9.582-14.453 9.5938-23.129v-459.55c-0.011719-8.6758-3.4609-16.992-9.5938-23.129-6.1367-6.1328-14.453-9.582-23.129-9.5938h-317.28c-2.4805 0-4.8438 1.0508-6.5039 2.8945l-78.75 87.5c-1.4453 1.6094-2.2461 3.6953-2.2461 5.8555v396.03c0.011719 8.6758 3.4609 16.992 9.5938 23.129 6.1367 6.1328 14.453 9.582 23.129 9.5938zm-326.03-493.45v20.988c-0.011719 9.2695-3.6953 18.156-10.25 24.711s-15.441 10.238-24.711 10.25h-15.391zm-61.25 460.73v-387.28h26.289c13.906-0.015625 27.242-5.5469 37.078-15.383 9.8359-9.8359 15.367-23.172 15.383-37.078v-35.039h308.53c4.0352 0.003906 7.9062 1.6094 10.758 4.4648 2.8555 2.8516 4.4609 6.7227 4.4648 10.758v459.55c-0.003906 4.0352-1.6094 7.9062-4.4648 10.758-2.8516 2.8555-6.7227 4.4609-10.758 4.4648h-372.05c-4.0352-0.003906-7.9062-1.6094-10.758-4.4648-2.8555-2.8516-4.4609-6.7227-4.4648-10.758z"/>
  <path d="m201.25 253.75h35c2.3203 0 4.5469-0.92188 6.1875-2.5625s2.5625-3.8672 2.5625-6.1875v-35c0-2.3203-0.92188-4.5469-2.5625-6.1875s-3.8672-2.5625-6.1875-2.5625h-35c-4.832 0-8.75 3.918-8.75 8.75v35c0 2.3203 0.92188 4.5469 2.5625 6.1875s3.8672 2.5625 6.1875 2.5625zm8.75-35h17.5v17.5h-17.5z"/>
  <path d="m201.25 332.5h35c2.3203 0 4.5469-0.92188 6.1875-2.5625s2.5625-3.8672 2.5625-6.1875v-35c0-2.3203-0.92188-4.5469-2.5625-6.1875s-3.8672-2.5625-6.1875-2.5625h-35c-4.832 0-8.75 3.918-8.75 8.75v35c0 2.3203 0.92188 4.5469 2.5625 6.1875s3.8672 2.5625 6.1875 2.5625zm8.75-35h17.5v17.5h-17.5z"/>
  <path d="m201.25 411.25h35c2.3203 0 4.5469-0.92188 6.1875-2.5625s2.5625-3.8672 2.5625-6.1875v-35c0-2.3203-0.92188-4.5469-2.5625-6.1875s-3.8672-2.5625-6.1875-2.5625h-35c-4.832 0-8.75 3.918-8.75 8.75v35c0 2.3203 0.92188 4.5469 2.5625 6.1875s3.8672 2.5625 6.1875 2.5625zm8.75-35h17.5v17.5h-17.5z"/>
  <path d="m201.25 490h35c2.3203 0 4.5469-0.92188 6.1875-2.5625s2.5625-3.8672 2.5625-6.1875v-35c0-2.3203-0.92188-4.5469-2.5625-6.1875s-3.8672-2.5625-6.1875-2.5625h-35c-4.832 0-8.75 3.918-8.75 8.75v35c0 2.3203 0.92188 4.5469 2.5625 6.1875s3.8672 2.5625 6.1875 2.5625zm8.75-35h17.5v17.5h-17.5z"/>
  <path d="m472.5 311.38-11.312-11.312-12.375 12.375 17.5 17.5c1.6406 1.6406 3.8672 2.5625 6.1875 2.5625s4.5469-0.92188 6.1875-2.5625l43.75-43.75-12.375-12.375z"/>
  <path d="m472.5 381.38-11.312-11.312-12.375 12.375 17.5 17.5c1.6406 1.6406 3.8672 2.5625 6.1875 2.5625s4.5469-0.92188 6.1875-2.5625l43.75-43.75-12.375-12.375z"/>
  <path d="m469.94 259.94 15.688-15.688 15.688 15.688 12.375-12.375-15.688-15.688 15.688-15.688-12.375-12.375-15.688 15.688-15.688-15.688-12.375 12.375 15.688 15.688-15.688 15.688z"/>
  <path d="m501.31 431.31-15.688 15.688-15.688-15.688-12.375 12.375 15.688 15.688-15.688 15.688 12.375 12.375 15.688-15.688 15.688 15.688 12.375-12.375-15.688-15.688 15.688-15.688z"/>
  <path d="m271.25 201.25h148.75v17.5h-148.75z"/>
  <path d="m271.25 236.25h78.75v17.5h-78.75z"/>
  <path d="m367.5 236.25h17.5v17.5h-17.5z"/>
  <path d="m271.25 280h122.5v17.5h-122.5z"/>
  <path d="m271.25 315h96.25v17.5h-96.25z"/>
  <path d="m271.25 358.75h52.5v17.5h-52.5z"/>
  <path d="m341.25 358.75h70v17.5h-70z"/>
  <path d="m271.25 393.75h78.75v17.5h-78.75z"/>
  <path d="m271.25 437.5h131.25v17.5h-131.25z"/>
  <path d="m271.25 472.5h17.5v17.5h-17.5z"/>
  <path d="m306.25 472.5h70v17.5h-70z"/>
  <path d="m464.03 175h51.941-0.003906c4.7148-0.003906 9.2344-1.8789 12.566-5.2148 3.3359-3.332 5.2109-7.8516 5.2148-12.566v-86.938c-0.003906-4.7148-1.8789-9.2344-5.2148-12.566-3.332-3.3359-7.8516-5.2109-12.566-5.2148h-51.938c-4.7148 0.003906-9.2344 1.8789-12.566 5.2148-3.3359 3.332-5.2109 7.8516-5.2148 12.566v86.941-0.003906c0.003906 4.7148 1.8789 9.2344 5.2148 12.566 3.332 3.3359 7.8516 5.2109 12.566 5.2148zm51.941-17.5h-51.941c-0.15625 0-0.28125-0.125-0.28125-0.28125v-43.469h52.5v43.469c0 0.15625-0.125 0.28125-0.28125 0.28125zm-51.941-87.5h51.941-0.003906c0.15625 0 0.28125 0.125 0.28125 0.28125v25.969h-52.5v-25.969c0-0.15625 0.125-0.28125 0.28125-0.28125z"/>
  <path d="m271.25 122.5h96.25v17.5h-96.25z"/>
  <path d="m385 122.5h17.5v17.5h-17.5z"/>
  <path d="m263.84 105h137.31c4.9961-0.003906 9.7852-1.9922 13.316-5.5273 3.5352-3.5312 5.5234-8.3203 5.5273-13.316v-14.812c-0.003906-4.9961-1.9922-9.7852-5.5273-13.316-3.5312-3.5352-8.3203-5.5234-13.316-5.5273h-137.31c-4.9961 0.003906-9.7852 1.9922-13.316 5.5273-3.5352 3.5312-5.5234 8.3203-5.5273 13.316v14.812c0.003906 4.9961 1.9922 9.7852 5.5273 13.316 3.5312 3.5352 8.3203 5.5234 13.316 5.5273zm-1.3438-33.656c0-0.74219 0.60156-1.3438 1.3438-1.3438h137.31c0.74219 0 1.3438 0.60156 1.3438 1.3438v14.812c0 0.74219-0.60156 1.3438-1.3438 1.3438h-137.31c-0.74219 0-1.3438-0.60156-1.3438-1.3438z"/>
 </g>
</svg>
