
<svg width="700pt" height="700pt"  viewBox="0 0 700 700" >

 <g>
  <path d="m437.91 325.11c17.668 0 17.668 26.859 0 26.859h-314.72c-7.4219 0-13.434-6.0117-13.434-13.434v-309.29c0-7.4141 6.0117-13.434 13.434-13.434h314.72c17.668 0 17.668 26.867 0 26.867h-301.29v282.43zm-276.13 42.094c26.895 0 48.699 21.801 48.699 48.699 0 11.629-4.0742 22.305-10.875 30.676 29.176 14.438 47.953 44.195 47.953 76.941v7.2344c0 7.4141-6.0195 13.434-13.434 13.434h-144.7c-7.4141 0-13.434-6.0195-13.434-13.434v-7.2344c0-32.746 18.777-62.504 47.953-76.941-6.8008-8.375-10.867-19.051-10.867-30.676 0-26.898 21.801-48.699 48.699-48.699zm0 26.859c-12.062 0-21.84 9.7773-21.84 21.84s9.7773 21.84 21.84 21.84 21.832-9.7773 21.832-21.84-9.7773-21.84-21.832-21.84zm-58.594 123.26h117.18c-7.375-69.523-109.82-69.523-117.18 0zm246.82-150.12c26.898 0 48.699 21.801 48.699 48.699 0 11.629-4.0742 22.305-10.875 30.676 29.176 14.438 47.953 44.195 47.953 76.941v7.2344c0 7.4141-6.0117 13.434-13.426 13.434h-144.71c-7.4141 0-13.426-6.0195-13.426-13.434v-7.2344c0-32.746 18.77-62.504 47.953-76.941-6.8008-8.375-10.875-19.051-10.875-30.676 0-26.898 21.801-48.699 48.699-48.699zm0 26.859c-12.062 0-21.84 9.7773-21.84 21.84s9.7773 21.84 21.84 21.84 21.84-9.7773 21.84-21.84-9.7773-21.84-21.84-21.84zm-58.594 123.26h117.18c-7.3672-69.523-109.81-69.523-117.18 0zm246.82-150.12c26.895 0 48.699 21.801 48.699 48.699 0 11.629-4.0742 22.305-10.875 30.676 29.176 14.438 47.953 44.195 47.953 76.941v7.2344c0 7.4141-6.0195 13.434-13.434 13.434h-144.7c-7.4141 0-13.434-6.0195-13.434-13.434v-7.2344c0-32.746 18.777-62.504 47.953-76.941-6.793-8.375-10.867-19.051-10.867-30.676 0-26.898 21.801-48.699 48.699-48.699zm0 26.859c-12.062 0-21.84 9.7773-21.84 21.84s9.7773 21.84 21.84 21.84c12.059 0 21.832-9.7773 21.832-21.84s-9.7773-21.84-21.832-21.84zm-58.594 123.26h117.18c-7.3672-69.523-109.81-69.523-117.18 0zm-15.762-450.73c34.375 0 62.234 27.867 62.234 62.234 0 16.602-6.6094 32.527-18.426 44.203 41.961 17.68 69.727 58.898 69.727 104.7v10.016c0 7.4141-6.0117 13.434-13.426 13.434h-200.21c-7.4219 0-13.434-6.0195-13.434-13.434v-10.016c0-45.797 27.766-87.023 69.727-104.7-11.828-11.762-18.422-27.516-18.422-44.203 0-34.367 27.859-62.234 62.227-62.234zm0 26.867c-19.539 0-35.367 15.828-35.367 35.367 0 19.539 15.836 35.367 35.367 35.367 19.539 0 35.367-15.828 35.367-35.367 0-19.539-15.828-35.367-35.367-35.367zm-86.605 180.85h173.21c-4.3711-111.04-168.95-108.18-173.21 0z"/>
 </g>
</svg>
