
<svg width="700pt" height="700pt" version="1.1" viewBox="0 0 700 700" xmlns="http://www.w3.org/2000/svg" xmlns:xlink="http://www.w3.org/1999/xlink">
 <defs>
  <symbol id="g" overflow="visible">
   <path d="m39.078-2.3281c-2.0117 1.043-4.1094 1.8281-6.2969 2.3594s-4.4648 0.79688-6.8281 0.79688c-7.0859 0-12.699-1.9766-16.844-5.9375-4.1367-3.957-6.2031-9.3281-6.2031-16.109 0-6.7891 2.0664-12.164 6.2031-16.125 4.1445-3.9688 9.7578-5.9531 16.844-5.9531 2.3633 0 4.6406 0.26562 6.8281 0.79688s4.2852 1.3242 6.2969 2.375v8.7969c-2.0312-1.3828-4.0391-2.3984-6.0156-3.0469-1.9688-0.64453-4.0469-0.96875-6.2344-0.96875-3.9062 0-6.9844 1.2578-9.2344 3.7656-2.2422 2.5-3.3594 5.9531-3.3594 10.359 0 4.3867 1.1172 7.8359 3.3594 10.344 2.25 2.5 5.3281 3.75 9.2344 3.75 2.1875 0 4.2656-0.32031 6.2344-0.96875 1.9766-0.64453 3.9844-1.6602 6.0156-3.0469z"/>
  </symbol>
  <symbol id="b" overflow="visible">
   <path d="m16.031-40.953v9.0625h10.516v7.2812h-10.516v13.531c0 1.4805 0.28906 2.4805 0.875 3 0.59375 0.52344 1.7656 0.78125 3.5156 0.78125h5.2344v7.2969h-8.7344c-4.0312 0-6.8867-0.83594-8.5625-2.5156-1.6797-1.6875-2.5156-4.5391-2.5156-8.5625v-13.531h-5.0781v-7.2812h5.0781v-9.0625z"/>
  </symbol>
  <symbol id="a" overflow="visible">
   <path d="m26.594-27.234v-17.078h10.266v44.312h-10.266v-4.6094c-1.3984 1.875-2.9453 3.25-4.6406 4.125-1.6875 0.875-3.6406 1.3125-5.8594 1.3125-3.9297 0-7.1562-1.5625-9.6875-4.6875-2.5234-3.125-3.7812-7.1445-3.7812-12.062 0-4.9141 1.2578-8.9375 3.7812-12.062 2.5312-3.125 5.7578-4.6875 9.6875-4.6875 2.1953 0 4.1445 0.44531 5.8438 1.3281 1.707 0.88672 3.2578 2.2578 4.6562 4.1094zm-6.7188 20.656c2.1875 0 3.8516-0.79688 5-2.3906 1.1445-1.5938 1.7188-3.9102 1.7188-6.9531 0-3.0391-0.57422-5.3594-1.7188-6.9531-1.1484-1.5938-2.8125-2.3906-5-2.3906-2.168 0-3.8242 0.79688-4.9688 2.3906-1.1484 1.5938-1.7188 3.9141-1.7188 6.9531 0 3.043 0.57031 5.3594 1.7188 6.9531 1.1445 1.5938 2.8008 2.3906 4.9688 2.3906z"/>
  </symbol>
  <symbol id="f" overflow="visible">
   <path d="m21.875-6.5781c2.1758 0 3.8359-0.79688 4.9844-2.3906 1.1562-1.5938 1.7344-3.9102 1.7344-6.9531 0-3.0391-0.57812-5.3594-1.7344-6.9531-1.1484-1.5938-2.8086-2.3906-4.9844-2.3906-2.1875 0-3.8672 0.80469-5.0312 2.4062-1.168 1.6055-1.75 3.918-1.75 6.9375 0 3.0234 0.58203 5.3359 1.75 6.9375 1.1641 1.6055 2.8438 2.4062 5.0312 2.4062zm-6.7812-20.656c1.4062-1.8516 2.9609-3.2227 4.6719-4.1094 1.707-0.88281 3.6719-1.3281 5.8906-1.3281 3.9375 0 7.1641 1.5625 9.6875 4.6875 2.5195 3.125 3.7812 7.1484 3.7812 12.062 0 4.918-1.2617 8.9375-3.7812 12.062-2.5234 3.125-5.75 4.6875-9.6875 4.6875-2.2188 0-4.1836-0.44531-5.8906-1.3281-1.7109-0.88281-3.2656-2.2539-4.6719-4.1094v4.6094h-10.188v-44.312h10.188z"/>
  </symbol>
  <symbol id="e" overflow="visible">
   <path d="m5.3594-42.516h10.953v16.203h16.188v-16.203h10.969v42.516h-10.969v-18.031h-16.188v18.031h-10.953z"/>
  </symbol>
  <symbol id="d" overflow="visible">
   <path d="m4.9062-31.891h10.188v31.891h-10.188zm0-12.422h10.188v8.3125h-10.188z"/>
  </symbol>
  <symbol id="c" overflow="visible">
   <path d="m34.953-41.188v9c-2.3438-1.0391-4.625-1.8281-6.8438-2.3594s-4.3203-0.79688-6.2969-0.79688c-2.6172 0-4.5547 0.35938-5.8125 1.0781-1.25 0.71875-1.875 1.8398-1.875 3.3594 0 1.1484 0.42188 2.0391 1.2656 2.6719 0.84375 0.63672 2.3789 1.1836 4.6094 1.6406l4.6719 0.9375c4.7188 0.94922 8.0703 2.3906 10.062 4.3281 2 1.9375 3 4.6875 3 8.25 0 4.6992-1.3906 8.1953-4.1719 10.484-2.7812 2.2812-7.0312 3.4219-12.75 3.4219-2.6875 0-5.3906-0.26172-8.1094-0.78125-2.7188-0.50781-5.4336-1.2656-8.1406-2.2656v-9.2656c2.707 1.4492 5.3281 2.5391 7.8594 3.2656 2.5391 0.73047 4.9883 1.0938 7.3438 1.0938 2.3945 0 4.2266-0.39453 5.5-1.1875 1.2695-0.80078 1.9062-1.9414 1.9062-3.4219 0-1.332-0.43359-2.3594-1.2969-3.0781-0.86719-0.71875-2.5898-1.3633-5.1719-1.9375l-4.2344-0.9375c-4.2617-0.90625-7.375-2.3516-9.3438-4.3438-1.9609-2-2.9375-4.6914-2.9375-8.0781 0-4.2266 1.3633-7.4844 4.0938-9.7656 2.7383-2.2812 6.6719-3.4219 11.797-3.4219 2.332 0 4.7344 0.17969 7.2031 0.53125 2.4688 0.35547 5.0234 0.88281 7.6719 1.5781z"/>
  </symbol>
 </defs>
 <g>
  <path d="m338.33 315h-210v-23.332h175c6.4453 0 11.668-5.2266 11.668-11.668s-5.2227-11.668-11.668-11.668h-175v-210h268.34v163.34c0 6.4414 5.2227 11.664 11.664 11.664 6.4453 0 11.668-5.2227 11.668-11.664v-175c0-3.0938-1.2305-6.0625-3.418-8.25s-5.1562-3.418-8.25-3.418h-291.66c-6.4453 0-11.668 5.2227-11.668 11.668v280c0 3.0938 1.2305 6.0586 3.418 8.25 2.1875 2.1875 5.1562 3.4141 8.25 3.4141h221.66c6.4453 0 11.668-5.2227 11.668-11.664 0-6.4453-5.2227-11.668-11.668-11.668z"/>
  <path d="m433.88 249.79c6.3398 0.90234 12.223-3.4727 13.184-9.8008 11.668-74.668 52.965-76.648 54.602-76.648 69.066 0 70 115.5 70 116.67v-0.003906c0 3.0938 1.2266 6.0625 3.4141 8.25 2.1914 2.1875 5.1562 3.418 8.25 3.418s6.0625-1.2305 8.25-3.418 3.418-5.1562 3.418-8.25c0-5.7148-1.0508-140-93.332-140-2.5664 0-63.234 1.0508-77.582 96.602h-0.003907c-0.90234 6.3359 3.4688 12.223 9.8008 13.184z"/>
  <path d="m501.67 280c-11.668 0-21.582-20.066-23.332-27.066h-0.003907c-2.0625-6.1211-8.6953-9.4141-14.816-7.3516s-9.4102 8.6953-7.3477 14.816c1.5156 4.3164 15.285 42.934 46.668 42.934 31.383 0 43.75-26.602 47.949-46.668v0.003907c6.4414-0.67969 11.117-6.4492 10.441-12.895-0.67969-6.4414-6.4492-11.117-12.895-10.441-38.5 0-59.266-39.551-59.617-40.25-1.2461-2.9922-3.6797-5.332-6.7227-6.457-3.043-1.125-6.4141-0.92969-9.3086 0.53125-2.8945 1.4648-5.0508 4.0664-5.9492 7.1836-0.89453 3.1133-0.45703 6.4648 1.2148 9.2422 12.359 23.48 33.23 41.344 58.336 49.934-2.3359 10.617-8.6367 26.484-24.617 26.484z"/>
  <path d="m543.67 305.67c-4.0273-2.8281-9.3945-2.8281-13.418 0-8.5039 5.2422-18.301 8.0195-28.293 8.0195-9.9922 0-19.785-2.7773-28.289-8.0195l-93.332-70h-0.003907c-4.6406-3.5117-11.164-3.0664-15.281 1.0469l-35 35c-2.3672 2.3711-3.5977 5.6445-3.3828 8.9844 0.21484 3.3633 1.875 6.4688 4.5469 8.5156l100.45 78.168v145.95c0 3.0938 1.2266 6.0625 3.4141 8.25 2.1914 2.1875 5.1562 3.418 8.25 3.418h116.67c6.4414 0 11.668-5.2227 11.668-11.668 0-6.4414-5.2266-11.664-11.668-11.664h-105v-140c-0.007812-3.6133-1.6875-7.0156-4.5508-9.2188l-94.5-73.5 18.434-18.551 85.867 64.285c22.746 14.453 51.355 16.086 75.602 4.3164l35.816 26.832v99.168h-23.336v-58.332c0-6.4453-5.2227-11.668-11.664-11.668-6.4453 0-11.668 5.2227-11.668 11.668v70c0 3.0938 1.2305 6.0586 3.418 8.25 2.1875 2.1875 5.1562 3.4141 8.25 3.4141h46.668-0.003907c3.0938 0 6.0625-1.2266 8.25-3.4141 2.1875-2.1914 3.418-5.1562 3.418-8.25v-116.67c0-3.6719-1.7305-7.1289-4.668-9.332z"/>
  <path d="m330.05 229.95c2.1914 2.2109 5.1719 3.4531 8.2812 3.4531 3.1133 0 6.0938-1.2422 8.2852-3.4531 2.207-2.1914 3.4492-5.1719 3.4492-8.2812 0-3.1133-1.2422-6.0938-3.4492-8.2852l-134.17-134.17c-4.5742-4.5742-11.992-4.5742-16.566 0-4.5742 4.5781-4.5742 11.992 0 16.57l100.1 99.984v-0.003906c-4.2656 9.543-5.5234 20.16-3.6055 30.434 1.918 10.273 6.918 19.723 14.336 27.086 2.1914 2.207 5.1758 3.4492 8.2852 3.4492s6.0938-1.2422 8.2852-3.4492c2.207-2.1914 3.4492-5.1758 3.4492-8.2852s-1.2422-6.0938-3.4492-8.2852c-5.9922-5.5859-9.0156-13.664-8.168-21.816z"/>
  <path d="m350 70h-70c-6.4414 0-11.668 5.2227-11.668 11.668 0 6.4414 5.2266 11.664 11.668 11.664h70c6.4414 0 11.668-5.2227 11.668-11.664 0-6.4453-5.2266-11.668-11.668-11.668z"/>
  <path d="m361.67 116.67c0-3.0938-1.2305-6.0625-3.418-8.25s-5.1562-3.418-8.25-3.418h-35c-6.4414 0-11.668 5.2227-11.668 11.668 0 6.4414 5.2266 11.664 11.668 11.664h35c3.0938 0 6.0625-1.2266 8.25-3.4141 2.1875-2.1914 3.418-5.1562 3.418-8.25z"/>
  <path d="m163.33 151.67h23.336c6.4414 0 11.664-5.2266 11.664-11.668s-5.2227-11.668-11.664-11.668h-23.336c-6.4414 0-11.664 5.2266-11.664 11.668s5.2227 11.668 11.664 11.668z"/>
  <path d="m163.33 186.67h58.336c6.4414 0 11.664-5.2266 11.664-11.668s-5.2227-11.668-11.664-11.668h-58.336c-6.4414 0-11.664 5.2266-11.664 11.668s5.2227 11.668 11.664 11.668z"/>
  <path d="m163.33 221.67h81.668c6.4414 0 11.668-5.2266 11.668-11.668s-5.2266-11.668-11.668-11.668h-81.668c-6.4414 0-11.664 5.2266-11.664 11.668s5.2227 11.668 11.664 11.668z"/>
 </g>
</svg>
